<svg width="317" height="255" viewBox="0 0 317 255" fill="none" xmlns="http://www.w3.org/2000/svg">
	<path d="M279.602 108.314C286.04 123.774 289.594 140.73 289.594 158.51C289.594 183.562 282.564 206.924 270.357 226.798H185.395L118.765 160.418L225.235 53.947L279.602 108.314Z" fill="white" fill-opacity="0.12"/>
	<path d="M46.6429 226.798H165.352L74.4538 136.357L29.3686 181.216C32.2496 197.679 38.2111 213.071 46.6429 226.798Z" fill="white" fill-opacity="0.12"/>
	<path d="M79.4055 54.1384C73.5687 58.5534 68.114 63.4451 63.0993 68.7551H191.236L205.785 54.1384H79.4055Z" fill="#27AAE1" fill-opacity="0.25"/>
	<path d="M43.2147 96.1615C45.9801 91.0765 49.0733 86.1949 52.466 81.5447H178.505L163.956 96.1615H43.2147Z" fill="#27AAE1" fill-opacity="0.25"/>
	<path d="M37.135 108.951C35.1907 113.691 33.517 118.569 32.1328 123.568H136.677L151.226 108.951H37.135Z" fill="#27AAE1" fill-opacity="0.25"/>
	<path d="M27.6205 150.974C27.9021 146.023 28.4596 141.146 29.2777 136.357H54.2804L39.6087 150.974H27.6205Z" fill="#27AAE1" fill-opacity="0.25"/>
	<path d="M109.299 150.974H109.397L123.947 136.357H94.6275L109.299 150.974Z" fill="#27AAE1" fill-opacity="0.25"/>
	<path fill-rule="evenodd" clip-rule="evenodd" d="M32.2383 254.205L31.6901 253.476C11.7919 227.024 0 194.14 0 158.511C0 71.0974 70.9654 0.239258 158.5 0.239258C246.035 0.239258 317 71.0974 317 158.511C317 194.14 305.208 227.024 285.31 253.476L284.762 254.205H32.2383ZM158.5 14.856C79.0179 14.856 14.6167 79.1901 14.6167 158.511C14.6167 188.607 23.8731 216.514 39.7048 239.588H277.295C293.127 216.514 302.383 188.607 302.383 158.511C302.383 79.1901 237.982 14.856 158.5 14.856Z" fill="#27AAE1" fill-opacity="0.25"/>
	</svg>
	