<svg width="56" height="46" viewBox="0 0 56 46" fill="none" xmlns="http://www.w3.org/2000/svg">
<path d="M13.9783 10.428C12.9508 11.2052 11.9906 12.0663 11.1078 13.001H33.6646L36.2258 10.428H13.9783Z" fill="#27AAE1"/>
<path d="M7.60739 17.8256C8.09421 16.9304 8.63873 16.0711 9.23597 15.2525H31.4236L28.8624 17.8256H7.60739Z" fill="#27AAE1"/>
<path d="M6.53714 20.077C6.19488 20.9114 5.90023 21.7702 5.65658 22.6501H24.0602L26.6214 20.077H6.53714Z" fill="#27AAE1"/>
<path d="M4.86223 27.4746C4.91181 26.6031 5.00994 25.7446 5.15396 24.9016H9.55537L6.97261 27.4746H4.86223Z" fill="#27AAE1"/>
<path d="M19.2407 27.4746H19.258L21.8192 24.9016H16.658L19.2407 27.4746Z" fill="#27AAE1"/>
<path fill-rule="evenodd" clip-rule="evenodd" d="M5.67514 45.6471L5.57864 45.5188C2.07581 40.8622 0 35.0734 0 28.8014C0 13.4134 12.4925 0.939697 27.9019 0.939697C43.3113 0.939697 55.8038 13.4134 55.8038 28.8014C55.8038 35.0734 53.728 40.8622 50.2252 45.5188L50.1287 45.6471H5.67514ZM27.9019 3.51278C13.9101 3.51278 2.57309 14.838 2.57309 28.8014C2.57309 34.0994 4.20256 39.0121 6.98953 43.074H48.8143C51.6012 39.0121 53.2307 34.0994 53.2307 28.8014C53.2307 14.838 41.8937 3.51278 27.9019 3.51278Z" fill="#27AAE1"/>
</svg>
